# Blender 3.4.0
# www.blender.org
mtllib slope.mtl
o Plane.002
v 3.148021 -0.150040 0.002797
v -3.161243 -0.150047 0.002790
v 3.148021 0.000332 0.034056
v -3.161243 0.000325 0.034049
v 3.148021 -0.148558 -0.004331
v -3.161243 -0.148565 -0.004337
v 3.148021 0.001813 0.026928
v -3.161243 0.001807 0.026922
vn -0.0000 -0.2035 0.9791
vn -0.0000 0.2035 -0.9791
vn 1.0000 -0.0000 -0.0000
vn -0.0000 -0.9791 -0.2035
vn -1.0000 -0.0000 -0.0000
vn -0.0000 0.9791 0.2035
vt 0.000000 0.000000
vt 1.000000 0.000000
vt 0.000000 1.000000
vt 1.000000 1.000000
vt 0.000000 0.000000
vt 1.000000 0.000000
vt 0.000000 1.000000
vt 1.000000 1.000000
s 0
usemtl Material.003
f 1/1/1 3/3/1 4/4/1 2/2/1
f 5/5/2 6/6/2 8/8/2 7/7/2
f 1/1/3 5/5/3 7/7/3 3/3/3
f 2/2/4 6/6/4 5/5/4 1/1/4
f 4/4/5 8/8/5 6/6/5 2/2/5
f 3/3/6 7/7/6 8/8/6 4/4/6
